<svg width="20" height="36" viewBox="0 0 20 36" fill="none" xmlns="http://www.w3.org/2000/svg">
<path d="M10 6.94995C11.6569 6.94995 13 5.60681 13 3.94995C13 2.2931 11.6569 0.949951 10 0.949951C8.34315 0.949951 7 2.2931 7 3.94995C7 5.60681 8.34315 6.94995 10 6.94995Z" stroke="#A1998D" stroke-width="1.9" stroke-linejoin="round"/>
<path d="M4 13.95C4 10.75 6.7 8.94995 10 8.94995C13.3 8.94995 16 10.75 16 13.95" stroke="#A1998D" stroke-width="1.9" stroke-linejoin="round"/>
<path d="M1.06532 24.5645H5.71682V31.0115H1.06532V24.5645ZM4.34132 25.667H2.44082V29.9195H4.34132V25.667ZM6.97682 23.6615H8.38382V33.3845H6.97682V23.6615ZM8.07932 27.326H9.79082V28.4705H8.07932V27.326ZM17.098 23.6405H18.4945V33.395H17.098V23.6405ZM13.255 24.323C13.752 24.323 14.193 24.4665 14.578 24.7535C14.963 25.0335 15.264 25.436 15.481 25.961C15.705 26.479 15.817 27.0915 15.817 27.7985C15.817 28.5125 15.705 29.132 15.481 29.657C15.264 30.175 14.963 30.5775 14.578 30.8645C14.193 31.1445 13.752 31.2845 13.255 31.2845C12.765 31.2845 12.3275 31.1445 11.9425 30.8645C11.5575 30.5775 11.253 30.175 11.029 29.657C10.812 29.132 10.7035 28.5125 10.7035 27.7985C10.7035 27.0915 10.812 26.479 11.029 25.961C11.253 25.436 11.5575 25.0335 11.9425 24.7535C12.3275 24.4665 12.765 24.323 13.255 24.323ZM13.255 25.5935C13.017 25.5935 12.807 25.6775 12.625 25.8455C12.443 26.0135 12.2995 26.262 12.1945 26.591C12.0965 26.913 12.0475 27.3155 12.0475 27.7985C12.0475 28.2745 12.0965 28.6805 12.1945 29.0165C12.2995 29.3455 12.443 29.594 12.625 29.762C12.807 29.93 13.017 30.014 13.255 30.014C13.5 30.014 13.7135 29.93 13.8955 29.762C14.0775 29.594 14.2175 29.3455 14.3155 29.0165C14.4205 28.6805 14.473 28.2745 14.473 27.7985C14.473 27.3155 14.4205 26.913 14.3155 26.591C14.2175 26.262 14.0775 26.0135 13.8955 25.8455C13.7135 25.6775 13.5 25.5935 13.255 25.5935Z" fill="#A1998D"/>
</svg>
